<svg width="120" height="121" viewBox="0 0 120 121" fill="none" xmlns="http://www.w3.org/2000/svg">
<g id="logo">
<g id="Group 3">
<mask id="mask0_8_744" style="mask-type:luminance" maskUnits="userSpaceOnUse" x="0" y="0" width="120" height="121">
<path id="Clip 2" fill-rule="evenodd" clip-rule="evenodd" d="M60.9069 0.193848C36.1522 0.193848 14.976 13.8405 6.24738 33.17L6.24118 33.1522C6.20008 33.251 6.17022 33.3518 6.12467 33.4482C-14.6256 77.3566 21.1297 117.854 56.8591 120.745C59.0418 120.922 60.9069 119.182 60.9069 116.992V108.768C60.9069 106.988 62.3149 105.545 64.0928 105.46C95.1604 103.981 119.842 80.999 119.842 52.8649C119.842 23.7753 93.4558 0.193848 60.9069 0.193848Z" fill="white"/>
</mask>
<g mask="url(#mask0_8_744)">
<path id="Fill 1" fill-rule="evenodd" clip-rule="evenodd" d="M60.9069 0.193848C36.1522 0.193848 14.976 13.8405 6.24738 33.17L6.24118 33.1522C6.20008 33.251 6.17022 33.3518 6.12467 33.4482C-14.6256 77.3566 21.1297 117.854 56.8591 120.745C59.0418 120.922 60.9069 119.182 60.9069 116.992V108.768C60.9069 106.988 62.3149 105.545 64.0928 105.46C95.1604 103.981 119.842 80.999 119.842 52.8649C119.842 23.7753 93.4558 0.193848 60.9069 0.193848Z" fill="url(#paint0_linear_8_744)"/>
</g>
</g>
<g id="Group 17">
<path id="Fill 4" fill-rule="evenodd" clip-rule="evenodd" d="M89.7972 38.4789C83.1714 30.5252 67.9205 30.4339 60.907 38.6334C53.8933 30.4339 38.6425 30.5252 32.0169 38.4789C19.5159 53.4859 32.0169 81.6428 60.907 91.957C89.7972 81.6428 102.298 53.4859 89.7972 38.4789Z" fill="#60A6DE"/>
<path id="Fill 6" fill-rule="evenodd" clip-rule="evenodd" d="M89.1387 35.9529C82.664 28.1804 67.7607 28.0912 60.9069 36.1041C54.0534 28.0912 39.1501 28.1804 32.6754 35.9529C20.4594 50.6177 32.6753 78.133 60.9069 88.212C89.1387 78.133 101.355 50.6177 89.1387 35.9529Z" fill="white"/>
<path id="Fill 8" fill-rule="evenodd" clip-rule="evenodd" d="M51.1428 56.2501C51.1428 57.578 50.0663 58.6543 48.7386 58.6543C47.4108 58.6543 46.3343 57.578 46.3343 56.2501C46.3343 54.9223 47.4108 53.8458 48.7386 53.8458C50.0663 53.8458 51.1428 54.9223 51.1428 56.2501Z" fill="#B3B3B3"/>
<path id="Fill 10" fill-rule="evenodd" clip-rule="evenodd" d="M63.3113 56.2501C63.3113 57.578 62.2348 58.6543 60.907 58.6543C59.5793 58.6543 58.5027 57.578 58.5027 56.2501C58.5027 54.9223 59.5793 53.8458 60.907 53.8458C62.2348 53.8458 63.3113 54.9223 63.3113 56.2501Z" fill="#B3B3B3"/>
<path id="Fill 12" fill-rule="evenodd" clip-rule="evenodd" d="M75.4797 56.2501C75.4797 57.578 74.4032 58.6543 73.0756 58.6543C71.7477 58.6543 70.6711 57.578 70.6711 56.2501C70.6711 54.9223 71.7477 53.8458 73.0756 53.8458C74.4032 53.8458 75.4797 54.9223 75.4797 56.2501Z" fill="#B3B3B3"/>
<g id="Group 16">
<mask id="mask1_8_744" style="mask-type:luminance" maskUnits="userSpaceOnUse" x="0" y="34" width="65" height="87">
<path id="Clip 15" fill-rule="evenodd" clip-rule="evenodd" d="M60.9076 105.536C61.9805 105.536 63.0461 105.514 64.0965 105.461C62.3129 105.544 60.9076 106.987 60.9076 108.77V116.991C60.9076 119.182 59.0411 120.92 56.8579 120.746C21.3305 117.868 -14.2118 77.8218 5.78073 34.2099C3.31734 40.0052 1.97252 46.2991 1.97252 52.8651" fill="white"/>
</mask>
<g mask="url(#mask1_8_744)">
<path id="Fill 14" fill-rule="evenodd" clip-rule="evenodd" d="M60.9076 105.536C61.9805 105.536 63.0461 105.514 64.0965 105.461C62.3129 105.544 60.9076 106.987 60.9076 108.77V116.991C60.9076 119.182 59.0411 120.92 56.8579 120.746C21.3305 117.868 -14.2118 77.8218 5.78073 34.2099C3.31734 40.0052 1.97252 46.2991 1.97252 52.8651C1.97252 81.9548 28.3574 105.536 60.9076 105.536Z" fill="url(#paint1_linear_8_744)"/>
</g>
</g>
</g>
</g>
<defs>
<linearGradient id="paint0_linear_8_744" x1="-42.543" y1="30.1423" x2="52.176" y2="144.266" gradientUnits="userSpaceOnUse">
<stop stop-color="#7EF2F2"/>
<stop offset="1" stop-color="#0B69DA"/>
</linearGradient>
<linearGradient id="paint1_linear_8_744" x1="-22.7471" y1="55.7088" x2="46.0307" y2="117.444" gradientUnits="userSpaceOnUse">
<stop stop-color="#7EF2F2"/>
<stop offset="1" stop-color="#0B69DA"/>
</linearGradient>
</defs>
</svg>
